<?xml version="1.0" encoding="UTF-8"?>
<svg id="Layer_0_Imagen" xmlns="http://www.w3.org/2000/svg" viewBox="0 0 276.81 163.57">
  <defs>
    <style>
      .cls-1 {
        fill: #fff;
      }
    </style>
  </defs>
  <path class="cls-1" d="M19.9,103.42c-.14-2.17.02-4.65.2-6.49.13-1.3.35-2.45.47-3.03,5.34-25.19,17.81-45.24,42.61-56.42,10.9-4.91,21.43-2.92,28.61,4.62,10.53,11.05,5.73,24.99-4.68,33.69-4,3.34-8.81,5.37-13.92,6.56-1.19.28-2.69.99-3.34-.63-.61-1.51.99-1.97,1.9-2.54,5.04-3.15,10.03-6.34,12.18-12.32,2.26-6.28,3.16-12.84-2.04-17.84-5.44-5.24-12.78-4.53-18.69-1.51-16.02,8.19-35.14,29.62-33.84,52.8.6,10.71,2.9,21,13.85,26.21,12.68,6.04,24.21,2.83,34.76-5.39,11.49-8.95,19.55-21.17,29.63-31.49,6.23-6.38,11.93-9.08,16.68-6.81,4.68,2.23,7.09,10.08,5.39,18.1-1.77,8.36-3.58,16.71-2.94,25.34.31,4.21,1.82,5.74,6.14,3.38,8.71-4.78,13.59-13.53,20.96-19.65,2.44-2.02,4.72-4.32,7.42-5.91,8.92-5.26,17.59-.27,17.83,10.2.07,3.13.19,6.19,1.7,8.98.44.81,1.27,1.64,2.1,1.93,1.2.42,1.73-.86,2.13-1.69,1.83-3.84,3.5-7.76,5.31-11.62,2.34-4.99,5.95-5.26,10.28-2.63,22.09,13.45,47.66,1.31,51.86-24.62.58-3.6-.17-7.05-1.04-10.49-.56-2.19-1.12-4.72,1.42-5.69,2.67-1.02,3.82,1.5,4.74,3.45,5.46,11.49,1.74,22.23-4.39,31.7-12.69,19.61-28.7,24.55-50.72,16.95-2.68-.92-4.23.09-5.76,2.13-3.15,4.23-4.84,9.33-8.43,13.32-5.14,5.7-10.22,5.4-14.53-1.12-2.55-3.85-3.05-8.24-3.65-12.68-.34-2.53-.08-5.91-3.33-6.91-3.34-1.03-5.55,1.35-7.75,3.46-6.67,6.4-12.75,13.43-20.18,19.01-2.89,2.17-5.78,4.37-9.45,5.23-6.51,1.53-12.24-2.37-12.98-9.06-1.08-9.83,2.41-19.22,2.9-28.9.1-1.95.77-4.29-1.42-5.4-2.07-1.05-3.33,1.02-4.58,2.15-6.52,5.95-12.07,12.79-17.67,19.58-7.28,8.82-16.27,15.41-27.15,18.85-24.99,7.89-46.06-6.67-48.35-33.12-.11-1.28-.21-2.56-.28-3.7l.04.02Z"/>
  <path class="cls-1" d="M130.49,61.11c2.48-1.5,5.72-1.57,6.77,1.76,1.13,4.1-.89,8.46-4.87,10.14-2.53,1.07-4.92.6-6.27-1.48-.48-.75-.72-1.64-.75-2.53-.14-3.78,2.53-6.46,5.13-7.89h-.01Z"/>
</svg>