<?xml version="1.0" encoding="UTF-8" standalone="no"?>
<!DOCTYPE svg PUBLIC "-//W3C//DTD SVG 1.1//EN" "http://www.w3.org/Graphics/SVG/1.1/DTD/svg11.dtd">
<!-- Created with Vectornator (http://vectornator.io/) -->
<svg height="100%" stroke-miterlimit="10" style="fill-rule:nonzero;clip-rule:evenodd;stroke-linecap:round;stroke-linejoin:round;" version="1.1" viewBox="0 0 46.3844 50.9576" width="100%" xml:space="preserve" xmlns="http://www.w3.org/2000/svg" xmlns:vectornator="http://vectornator.io" xmlns:xlink="http://www.w3.org/1999/xlink">
<defs/>
<g id="Untitled" vectornator:layerName="Untitled">
<path d="M13 31L13 17L21 17" fill="none" opacity="1" stroke="#d29e8e" stroke-linecap="round" stroke-linejoin="round" stroke-width="4" vectornator:layerName="path"/>
<path d="M13 24L20.5 24" fill="none" opacity="1" stroke="#d29e8e" stroke-linecap="round" stroke-linejoin="round" stroke-width="4" vectornator:layerName="path"/>
<path d="M13 31L20.5 31" fill="none" opacity="1" stroke="#d29e8e" stroke-linecap="round" stroke-linejoin="round" stroke-width="4" vectornator:layerName="path"/>
<path d="M26 31L26 19" fill="none" opacity="0" stroke="#d29e8e" stroke-linecap="round" stroke-linejoin="round" stroke-width="4" vectornator:layerName="path"/>
<path d="M26 31L26 24.5C26 22.0147 28.0147 20 30.5 20L30.5 20C32.9853 20 35 22.0147 35 24.5L35 31" fill="none" opacity="0" stroke="#d29e8e" stroke-linecap="round" stroke-linejoin="round" stroke-width="4" vectornator:layerName="path"/>
<path d="M9 6L39 6C40.6569 6 42 7.34315 42 9L42 39C42 40.6569 40.6569 42 39 42L9 42C7.34315 42 6 40.6569 6 39L6 9C6 7.34315 7.34315 6 9 6Z" fill="none" opacity="1" stroke="#d29e8e" stroke-linecap="round" stroke-linejoin="round" stroke-width="4" vectornator:layerName="rect"/>
<path d="M24.8577 30.5409C24.734 30.1903 24.6824 29.8448 24.703 29.5044C24.7237 29.1641 24.8113 28.8547 24.966 28.5763C25.1207 28.2978 25.3425 28.0812 25.6312 27.9265C25.92 27.7718 26.2706 27.7151 26.6832 27.7564C26.91 27.777 27.1163 27.8389 27.3019 27.942C27.4876 28.0451 27.6577 28.1689 27.8124 28.3133C27.9671 28.4577 28.1218 28.6124 28.2765 28.7774C28.4312 28.9424 28.5911 29.0868 28.7561 29.2105C29.1067 29.4787 29.478 29.6746 29.8699 29.7984C30.2618 29.9221 30.6743 30.0149 31.1075 30.0768C31.3962 30.0768 31.6283 30.0046 31.8036 29.8602C31.9789 29.7159 32.0975 29.5405 32.1594 29.3343C32.2213 29.128 32.2368 28.9063 32.2058 28.6691C32.1749 28.4319 32.0975 28.2411 31.9738 28.0967C31.6231 27.7461 31.1951 27.5192 30.6898 27.416C30.1844 27.3129 29.7152 27.1892 29.2821 27.0448C28.6633 26.8385 28.0548 26.5755 27.4566 26.2558C26.8585 25.9361 26.3738 25.4978 26.0025 24.9409C25.6106 24.3634 25.3786 23.7497 25.3064 23.1C25.2342 22.4503 25.2857 21.816 25.4611 21.1973C25.6364 20.5785 25.9303 20.0113 26.3428 19.4956C26.7554 18.9799 27.2504 18.5571 27.8279 18.2271C28.2611 17.9796 28.7355 17.8197 29.2511 17.7475C29.7668 17.6753 30.2876 17.6599 30.8135 17.7011C31.3395 17.7424 31.8603 17.8403 32.376 17.995C32.8916 18.1497 33.366 18.3199 33.7992 18.5055C34.2942 18.7324 34.6655 19.0521 34.913 19.4647C35.1605 19.8772 35.2791 20.2949 35.2688 20.7177C35.2585 21.1405 35.1141 21.5066 34.8356 21.816C34.5572 22.1254 34.1498 22.2801 33.6135 22.2801C33.2835 22.2801 32.9844 22.2234 32.7163 22.11C32.4482 21.9965 32.1697 21.8882 31.8809 21.7851C31.5097 21.6407 31.1075 21.5427 30.6743 21.4912C30.2412 21.4396 29.8905 21.4654 29.6224 21.5685C29.5399 21.5892 29.4471 21.6562 29.3439 21.7696C29.2408 21.8831 29.1635 22.0223 29.1119 22.1873C29.0603 22.3523 29.05 22.5173 29.0809 22.6823C29.1119 22.8473 29.2202 22.9814 29.4058 23.0845C29.9008 23.3527 30.4268 23.559 30.9837 23.7033C31.5406 23.8477 32.0872 24.0127 32.6235 24.1984C33.1598 24.384 33.66 24.6212 34.124 24.91C34.5881 25.1987 34.9749 25.6113 35.2843 26.1475C35.738 26.9313 35.9701 27.7512 35.9804 28.6072C35.9907 29.4632 35.8205 30.2624 35.4699 31.005C35.1193 31.7475 34.6036 32.3818 33.9229 32.9078C33.2423 33.4337 32.4482 33.7483 31.5406 33.8514C30.9012 33.9133 30.2721 33.8772 29.6533 33.7431C29.0345 33.609 28.4364 33.3925 27.8589 33.0934C27.2813 32.7943 26.745 32.4385 26.25 32.026C25.755 31.6135 25.3218 31.1803 24.9506 30.7265L24.8577 30.5409Z" fill="#d29e8e" opacity="1" stroke="none"/>
</g>
</svg>
